<?xml version="1.0" encoding="UTF-8"?>
<svg width="32" height="32" viewBox="0 0 32 32" fill="none" xmlns="http://www.w3.org/2000/svg">
  <!-- Fundo laranja circular -->
  <circle cx="16" cy="16" r="16" fill="#F7931A"/>
 
  <!-- Símbolo do Bitcoin em branco -->
  <path d="M22.5 14.25c.167 1.167-.333 2.167-1 2.833-.667.667-1.667 1.167-2.833 1.333.833.167 1.667.5 2.166 1 .5.5.834 1.167.834 2 0 .833-.334 1.667-.834 2.167-.5.5-1.166.833-1.833 1-.667.167-1.333.25-2 .25H16V27h-2v-2.167h-1V27h-2v-2.167H9v-2h1.333c.334 0 .5-.166.5-.5V11.667c0-.334-.166-.5-.5-.5H9v-2h2V7h2v2.167h1V7h2v2.167c.667 0 1.333.083 2 .25.667.167 1.333.5 1.833 1 .5.5.834 1.166.834 2 0 .833-.167 1.5-.667 2.083-.333.5-.833.917-1.5 1.167.667.166 1.334.5 1.834 1 .5.5.833 1.166.833 2zm-4.667-3.583c0-.334-.166-.667-.333-.834-.167-.166-.5-.333-.833-.333-.334-.083-.667-.083-1-.083h-1.834v2.666h1.834c.333 0 .666 0 1-.083.333-.083.666-.167.833-.333.167-.25.333-.5.333-1zm.334 6.166c0-.333-.167-.666-.334-.833-.167-.167-.5-.333-.833-.333-.333-.083-.667-.083-1-.083h-2.167v2.666H16c.333 0 .667 0 1-.083.333-.083.666-.167.833-.333.167-.167.334-.5.334-1z" fill="white"/>
</svg> 